<?xml version="1.0" encoding="UTF-8"?>
<svg xmlns="http://www.w3.org/2000/svg" onmouseup="{ if(window.parent.document.onmouseup) window.parent.document.onmouseup(arguments[0]);}" viewBox="0 0 85.87 72.02"><title/><g data-name="Layer 2" id="Layer_2"><g data-name="Layer 2" id="Layer_2-2"><path data-cppathid="10000" fill="#fff" d="M30.47,13.85V6.92A6.94,6.94,0,0,0,23.54,0H6.92A6.94,6.94,0,0,0,0,6.92V72H85.87V13.85ZM83.1,69.25h-18V59.93h1.39V54.39H60.94v5.54h1.38v9.32H23.54V59.93h1.39V54.39H19.39v5.54h1.38v9.32h-18V6.92A4.15,4.15,0,0,1,6.92,2.77H23.54A4.16,4.16,0,0,1,27.7,6.92v9.7H83.1Z"/><rect data-cppathid="10001" fill="#fff" height="2.77" width="55.4" y="27.7" x="15.23"/><rect data-cppathid="10002" fill="#fff" height="2.77" width="41.55" y="41.55" x="15.23"/></g></g></svg>